<svg xmlns="http://www.w3.org/2000/svg" viewBox="0 0 800 800"><defs><radialGradient id="b" cx="50%" cy="50%" r="50%" fx="50%" fy="50%"><stop offset="0%" style="stop-color:#e6f2ff;stop-opacity:.9"/><stop offset="100%" style="stop-color:#c5d9f1;stop-opacity:.9"/></radialGradient><radialGradient id="c" cx="50%" cy="50%" r="50%" fx="50%" fy="50%"><stop offset="0%" style="stop-color:#fffaeb;stop-opacity:.9"/><stop offset="100%" style="stop-color:#fff0c1;stop-opacity:.9"/></radialGradient><radialGradient id="d" cx="50%" cy="50%" r="50%" fx="50%" fy="50%"><stop offset="0%" style="stop-color:#f0fff4;stop-opacity:.9"/><stop offset="100%" style="stop-color:#d0f0d8;stop-opacity:.9"/></radialGradient><radialGradient id="e" cx="50%" cy="50%" r="50%" fx="50%" fy="50%"><stop offset="0%" style="stop-color:#feecf0;stop-opacity:.9"/><stop offset="100%" style="stop-color:#fad8e0;stop-opacity:.9"/></radialGradient><radialGradient id="f" cx="50%" cy="50%" r="50%" fx="50%" fy="50%"><stop offset="0%" style="stop-color:#6c3483;stop-opacity:1"/><stop offset="100%" style="stop-color:#4a235a;stop-opacity:1"/></radialGradient><filter id="a" width="140%" height="140%" x="-20%" y="-20%"><feGaussianBlur in="SourceAlpha" stdDeviation="4"/><feOffset dx="3" dy="3" result="offsetblur"/><feComponentTransfer><feFuncA slope=".3" type="linear"/></feComponentTransfer><feMerge><feMergeNode/><feMergeNode in="SourceGraphic"/></feMerge></filter><filter id="g" width="160%" height="160%" x="-30%" y="-30%"><feGaussianBlur in="SourceGraphic" result="blur" stdDeviation="3"/><feComposite in="SourceGraphic" in2="blur"/></filter><symbol id="h" viewBox="0 0 20 36"><circle cx="10" cy="6" r="5"/><path d="M5 12h10l2 23h-4l-1-10H8L7 35H3Z"/></symbol><marker id="i" markerHeight="7" markerWidth="10" orient="auto" refX="9" refY="3.5"><path fill="#333" d="m0 0 10 3.5L0 7z"/></marker></defs><path fill="#f8f9fa" d="M0 0h800v800H0z"/><text x="400" y="60" fill="#1a3c34" font-family="'Montserrat', sans-serif" font-size="28" font-weight="bold" text-anchor="middle">
        The Bias Ecosystem
    </text><text x="400" y="95" fill="#1a3c34" font-family="'Montserrat', sans-serif" font-size="20" text-anchor="middle">
        How Different Biases Filter Diverse Perspectives
    </text><rect width="700" height="550" x="50" y="120" fill="#f0f0f0" stroke="#d0d0d0" filter="url(#a)" rx="10"/><circle cx="400" cy="400" r="300" fill="url(#b)" stroke="#3273dc" stroke-width="4" filter="url(#a)"/><circle cx="400" cy="400" r="225" fill="url(#c)" stroke="#ffdd57" stroke-width="4" filter="url(#a)"/><circle cx="400" cy="400" r="150" fill="url(#d)" stroke="#48c774" stroke-width="4" filter="url(#a)"/><circle cx="400" cy="400" r="75" fill="url(#e)" stroke="#f14668" stroke-width="4" filter="url(#a)"/><circle cx="400" cy="400" r="30" fill="url(#f)" stroke="#4a235a" stroke-width="3" filter="url(#g)"/><text x="400" y="395" fill="#fff" font-family="'Montserrat', sans-serif" font-size="10" font-weight="bold" text-anchor="middle">
        Resulting
    </text><text x="400" y="408" fill="#fff" font-family="'Montserrat', sans-serif" font-size="10" font-weight="bold" text-anchor="middle">
        Decision
    </text><use width="30" height="50" x="100" y="350" fill="#3273dc" href="#h"/><use width="30" height="50" x="150" y="200" fill="#f14668" href="#h"/><use width="30" height="50" x="300" y="120" fill="#48c774" href="#h"/><use width="30" height="50" x="450" y="120" fill="#f93" href="#h"/><use width="30" height="50" x="600" y="200" fill="#96f" href="#h"/><use width="30" height="50" x="650" y="350" fill="#17a2b8" href="#h"/><use width="30" height="50" x="600" y="500" fill="#f14668" href="#h"/><use width="30" height="50" x="450" y="580" fill="#3273dc" href="#h"/><use width="30" height="50" x="300" y="580" fill="#f93" href="#h"/><use width="30" height="50" x="150" y="500" fill="#48c774" href="#h"/><use width="30" height="50" x="200" y="250" fill="#3273dc" href="#h"/><use width="30" height="50" x="300" y="200" fill="#f14668" href="#h"/><use width="30" height="50" x="500" y="200" fill="#48c774" href="#h"/><use width="30" height="50" x="600" y="250" fill="#96f" href="#h"/><use width="30" height="50" x="600" y="450" fill="#17a2b8" href="#h"/><use width="30" height="50" x="500" y="500" fill="#f93" href="#h"/><use width="30" height="50" x="300" y="500" fill="#3273dc" href="#h"/><use width="30" height="50" x="200" y="450" fill="#48c774" href="#h"/><use width="30" height="50" x="300" y="275" fill="#3273dc" href="#h"/><use width="30" height="50" x="350" y="250" fill="#f14668" href="#h"/><use width="30" height="50" x="450" y="250" fill="#48c774" href="#h"/><use width="30" height="50" x="500" y="275" fill="#96f" href="#h"/><use width="30" height="50" x="500" y="425" fill="#17a2b8" href="#h"/><use width="30" height="50" x="450" y="450" fill="#3273dc" href="#h"/><use width="30" height="50" x="350" y="325" fill="#3273dc" href="#h"/><use width="30" height="50" x="400" y="325" fill="#f14668" href="#h"/><use width="30" height="50" x="450" y="325" fill="#48c774" href="#h"/><use width="30" height="50" x="400" y="425" fill="#96f" href="#h"/><g fill="#fff"><circle cx="120" cy="335" r="7" stroke="#3273dc"/><circle cx="170" cy="185" r="7" stroke="#f14668"/><circle cx="320" cy="105" r="7" stroke="#48c774"/><circle cx="470" cy="105" r="7" stroke="#f93"/><circle cx="620" cy="185" r="7" stroke="#96f"/><circle cx="670" cy="335" r="7" stroke="#17a2b8"/><circle cx="620" cy="485" r="7" stroke="#f14668"/><circle cx="470" cy="565" r="7" stroke="#3273dc"/><circle cx="320" cy="565" r="7" stroke="#f93"/><circle cx="170" cy="485" r="7" stroke="#48c774"/><circle cx="220" cy="235" r="7" stroke="#3273dc"/><circle cx="320" cy="185" r="7" stroke="#f14668"/><circle cx="520" cy="185" r="7" stroke="#48c774"/><circle cx="620" cy="235" r="7" stroke="#96f"/><circle cx="320" cy="260" r="7" stroke="#3273dc"/><circle cx="370" cy="235" r="7" stroke="#f14668"/><circle cx="470" cy="235" r="7" stroke="#48c774"/><circle cx="370" cy="310" r="7" stroke="#3273dc"/><circle cx="420" cy="310" r="7" stroke="#f14668"/></g><g fill="none" stroke="#333" stroke-width="2" marker-end="url(#i)" filter="url(#g)"><path d="m200 200 20 20"/><path d="m600 200-20 20"/><path d="m200 500 20-20"/><path d="m600 500-20-20"/><path d="m300 200 20 40"/><path d="m500 200-20 40"/><path d="m300 500 20-40"/><path d="m500 500-20-40"/><path d="m350 275 20 35"/><path d="m450 275-20 35"/><path d="m350 425 20-35"/><path d="m450 425-20-35"/><path d="m375 350 10 20"/><path d="m425 350-10 20"/></g><rect width="240" height="100" x="280" y="140" fill="#e6f2ff" fill-opacity=".9" stroke="#3273dc" stroke-width="2" filter="url(#a)" rx="10"/><text x="400" y="165" fill="#1a3c34" font-family="'Montserrat', sans-serif" font-size="18" font-weight="bold" text-anchor="middle">
            Social Dominance Biases
        </text><text x="400" y="195" fill="#333" font-family="'Quicksand', sans-serif" font-size="14" text-anchor="middle">
            Who gets to speak?
        </text><text x="400" y="225" fill="#333" font-family="'Quicksand', sans-serif" font-size="12" text-anchor="middle">
            (Authority bias, Conformity bias, Groupthink)
        </text><rect width="240" height="100" x="120" y="340" fill="#fffaeb" fill-opacity=".9" stroke="#ffdd57" stroke-width="2" filter="url(#a)" rx="10"/><text x="240" y="365" fill="#1a3c34" font-family="'Montserrat', sans-serif" font-size="18" font-weight="bold" text-anchor="middle">
            Identity &amp; Affinity Biases
        </text><text x="240" y="395" fill="#333" font-family="'Quicksand', sans-serif" font-size="14" text-anchor="middle">
            Whose contributions get attention?
        </text><text x="240" y="425" fill="#333" font-family="'Quicksand', sans-serif" font-size="12" text-anchor="middle">
            (Affinity bias, Implicit bias, Halo effects)
        </text><rect width="240" height="100" x="440" y="340" fill="#f0fff4" fill-opacity=".9" stroke="#48c774" stroke-width="2" filter="url(#a)" rx="10"/><text x="560" y="365" fill="#1a3c34" font-family="'Montserrat', sans-serif" font-size="18" font-weight="bold" text-anchor="middle">
            Information Processing Biases
        </text><text x="560" y="395" fill="#333" font-family="'Quicksand', sans-serif" font-size="14" text-anchor="middle">
            What information gets considered?
        </text><text x="560" y="425" fill="#333" font-family="'Quicksand', sans-serif" font-size="12" text-anchor="middle">
            (Confirmation bias, Availability bias)
        </text><rect width="240" height="100" x="280" y="540" fill="#feecf0" fill-opacity=".9" stroke="#f14668" stroke-width="2" filter="url(#a)" rx="10"/><text x="400" y="565" fill="#1a3c34" font-family="'Montserrat', sans-serif" font-size="18" font-weight="bold" text-anchor="middle">
            Communication Style Biases
        </text><text x="400" y="595" fill="#333" font-family="'Quicksand', sans-serif" font-size="14" text-anchor="middle">
            How ideas must be expressed?
        </text><text x="400" y="625" fill="#333" font-family="'Quicksand', sans-serif" font-size="12" text-anchor="middle">
            (Confidence premium, Directness preferences)
        </text><g stroke="#333" stroke-width="2" marker-end="url(#i)" opacity=".7"><path d="M400 240v30"/><path d="m240 440 40-40"/><path d="m560 440-40-40"/><path d="M400 540v-60"/></g><g fill="#333" font-family="'Quicksand', sans-serif" font-size="12"><text x="100" y="140" font-weight="bold">Starting Point:</text><text x="100" y="160">All potential perspectives</text><text x="650" y="140" font-weight="bold" text-anchor="end">Filtering Process:</text><text x="650" y="160" text-anchor="end">From diversity to homogeneity</text></g><rect width="160" height="100" x="580" y="680" fill="#fff" stroke="#ddd" filter="url(#a)" rx="5"/><text x="660" y="700" fill="#1a3c34" font-family="'Montserrat', sans-serif" font-size="14" font-weight="bold" text-anchor="middle">Legend</text><circle cx="600" cy="725" r="10" fill="url(#b)" stroke="#3273dc" stroke-width="2"/><text x="615" y="730" fill="#333" font-family="'Quicksand', sans-serif" font-size="12">Social Dominance</text><circle cx="600" cy="755" r="10" fill="url(#c)" stroke="#ffdd57" stroke-width="2"/><text x="615" y="760" fill="#333" font-family="'Quicksand', sans-serif" font-size="12">Identity &amp; Affinity</text><circle cx="600" cy="785" r="10" fill="url(#d)" stroke="#48c774" stroke-width="2"/><text x="615" y="790" fill="#333" font-family="'Quicksand', sans-serif" font-size="12">Info Processing</text><rect width="500" height="90" x="60" y="680" fill="#f0f0f0" stroke="#d0d0d0" filter="url(#a)" rx="10"/><text x="80" y="705" fill="#1a3c34" font-family="'Montserrat', sans-serif" font-size="14" font-weight="bold">Key Insight:</text><text x="80" y="730" fill="#333" font-family="'Quicksand', sans-serif" font-size="12">Each bias layer acts as a filter, progressively narrowing the range</text><text x="80" y="750" fill="#333" font-family="'Quicksand', sans-serif" font-size="12">of perspectives that influence decisions, creating exclusion.</text><text x="400" y="790" fill="#666" font-family="'Quicksand', sans-serif" font-size="12" text-anchor="middle">
        © Azeez A. Hamzat: Overcoming Biases for Inclusive Decision Making
    </text></svg>