<svg xmlns="http://www.w3.org/2000/svg" viewBox="0 0 800 600"><rect width="800" height="600" fill="#f8f9fa" rx="10" ry="10"/><text x="400" y="50" fill="#2c3e50" font-family="'Montserrat', sans-serif" font-size="24" font-weight="bold" text-anchor="middle">The Ecosystem of Collective Intelligence</text><circle cx="400" cy="300" r="80" fill="#3498db" opacity=".9"/><text x="400" y="290" fill="#fff" font-family="'Montserrat', sans-serif" font-size="16" font-weight="bold" text-anchor="middle">Breakthrough</text><text x="400" y="310" fill="#fff" font-family="'Montserrat', sans-serif" font-size="16" font-weight="bold" text-anchor="middle">Innovation</text><circle cx="400" cy="300" r="160" fill="none" stroke="#2980b9" stroke-dasharray="5,5" stroke-width="3"/><circle cx="400" cy="300" r="240" fill="none" stroke="#2980b9" stroke-dasharray="3,3" stroke-width="2"/><circle cx="400" cy="140" r="45" fill="#e74c3c" opacity=".8"/><text x="400" y="128" fill="#fff" font-family="'Montserrat', sans-serif" font-size="11" font-weight="bold" text-anchor="middle">Psychological</text><text x="400" y="143" fill="#fff" font-family="'Montserrat', sans-serif" font-size="11" font-weight="bold" text-anchor="middle">Safety</text><path stroke="#2c3e50" stroke-width="2" d="M400 185v35"/><circle cx="560" cy="240" r="40" fill="#f39c12" opacity=".8"/><text x="560" y="228" fill="#fff" font-family="'Montserrat', sans-serif" font-size="11" font-weight="bold" text-anchor="middle">Cognitive</text><text x="560" y="243" fill="#fff" font-family="'Montserrat', sans-serif" font-size="11" font-weight="bold" text-anchor="middle">Diversity</text><path stroke="#2c3e50" stroke-width="2" d="m530 260-60 20"/><circle cx="240" cy="240" r="40" fill="#27ae60" opacity=".8"/><text x="240" y="228" fill="#fff" font-family="'Montserrat', sans-serif" font-size="11" font-weight="bold" text-anchor="middle">Knowledge</text><text x="240" y="243" fill="#fff" font-family="'Montserrat', sans-serif" font-size="11" font-weight="bold" text-anchor="middle">Sharing</text><path stroke="#2c3e50" stroke-width="2" d="m270 260 60 20"/><circle cx="400" cy="460" r="40" fill="#9b59b6" opacity=".8"/><text x="400" y="448" fill="#fff" font-family="'Montserrat', sans-serif" font-size="11" font-weight="bold" text-anchor="middle">Collaborative</text><text x="400" y="463" fill="#fff" font-family="'Montserrat', sans-serif" font-size="11" font-weight="bold" text-anchor="middle">Process</text><path stroke="#2c3e50" stroke-width="2" d="M400 420v-40"/><circle cx="220" cy="120" r="35" fill="#16a085" opacity=".7"/><text x="220" y="108" fill="#fff" font-family="'Montserrat', sans-serif" font-size="9" font-weight="bold" text-anchor="middle">Previous</text><text x="220" y="123" fill="#fff" font-family="'Montserrat', sans-serif" font-size="9" font-weight="bold" text-anchor="middle">Knowledge</text><path stroke="#2c3e50" stroke-dasharray="4,2" d="m244 138 116 2"/><circle cx="620" cy="140" r="35" fill="#16a085" opacity=".7"/><text x="620" y="128" fill="#fff" font-family="'Montserrat', sans-serif" font-size="9" font-weight="bold" text-anchor="middle">Cross-</text><text x="620" y="143" fill="#fff" font-family="'Montserrat', sans-serif" font-size="9" font-weight="bold" text-anchor="middle">Pollination</text><path stroke="#2c3e50" stroke-dasharray="4,2" d="m595 158-155-18"/><circle cx="150" cy="400" r="35" fill="#16a085" opacity=".7"/><text x="150" y="388" fill="#fff" font-family="'Montserrat', sans-serif" font-size="9" font-weight="bold" text-anchor="middle">Institutional</text><text x="150" y="403" fill="#fff" font-family="'Montserrat', sans-serif" font-size="9" font-weight="bold" text-anchor="middle">Support</text><path stroke="#2c3e50" stroke-dasharray="4,2" d="m174 382 66-102"/><circle cx="110" cy="220" r="35" fill="#16a085" opacity=".7"/><text x="110" y="208" fill="#fff" font-family="'Montserrat', sans-serif" font-size="9" font-weight="bold" text-anchor="middle">Failure</text><text x="110" y="223" fill="#fff" font-family="'Montserrat', sans-serif" font-size="9" font-weight="bold" text-anchor="middle">Tolerance</text><path stroke="#2c3e50" stroke-dasharray="4,2" d="m135 230 65 10"/><circle cx="680" cy="320" r="35" fill="#16a085" opacity=".7"/><text x="680" y="308" fill="#fff" font-family="'Montserrat', sans-serif" font-size="9" font-weight="bold" text-anchor="middle">Diverse</text><text x="680" y="323" fill="#fff" font-family="'Montserrat', sans-serif" font-size="9" font-weight="bold" text-anchor="middle">Perspectives</text><path stroke="#2c3e50" stroke-dasharray="4,2" d="m655 305-95-25"/><circle cx="200" cy="520" r="35" fill="#16a085" opacity=".7"/><text x="200" y="508" fill="#fff" font-family="'Montserrat', sans-serif" font-size="9" font-weight="bold" text-anchor="middle">Frequent</text><text x="200" y="523" fill="#fff" font-family="'Montserrat', sans-serif" font-size="9" font-weight="bold" text-anchor="middle">Interactions</text><path stroke="#2c3e50" stroke-dasharray="4,2" d="m224 500 146-40"/><circle cx="600" cy="520" r="35" fill="#16a085" opacity=".7"/><text x="600" y="508" fill="#fff" font-family="'Montserrat', sans-serif" font-size="9" font-weight="bold" text-anchor="middle">Resource</text><text x="600" y="523" fill="#fff" font-family="'Montserrat', sans-serif" font-size="9" font-weight="bold" text-anchor="middle">Access</text><path stroke="#2c3e50" stroke-dasharray="4,2" d="m576 500-146-40"/><circle cx="650" cy="400" r="35" fill="#16a085" opacity=".7"/><text x="650" y="388" fill="#fff" font-family="'Montserrat', sans-serif" font-size="9" font-weight="bold" text-anchor="middle">External</text><text x="650" y="403" fill="#fff" font-family="'Montserrat', sans-serif" font-size="9" font-weight="bold" text-anchor="middle">Inspiration</text><path stroke="#2c3e50" stroke-dasharray="4,2" d="m626 382-66-102"/><rect width="180" height="140" x="50" y="50" fill="#fff" stroke="#2c3e50" opacity=".8" rx="5" ry="5"/><text x="60" y="70" fill="#2c3e50" font-family="'Montserrat', sans-serif" font-size="12" font-weight="bold">Legend</text><circle cx="70" cy="90" r="8" fill="#3498db"/><text x="85" y="94" fill="#2c3e50" font-family="'Quicksand', sans-serif" font-size="9">Innovation Center</text><circle cx="70" cy="110" r="8" fill="#e74c3c"/><text x="85" y="114" fill="#2c3e50" font-family="'Quicksand', sans-serif" font-size="9">Core Enablers</text><circle cx="70" cy="130" r="8" fill="#16a085"/><text x="85" y="134" fill="#2c3e50" font-family="'Quicksand', sans-serif" font-size="9">Supporting Elements</text><path stroke="#2c3e50" stroke-dasharray="4,2" d="M70 150h80"/><text x="85" y="154" fill="#2c3e50" font-family="'Quicksand', sans-serif" font-size="9">Implicit Connections</text><text x="400" y="590" fill="#666" font-family="'Quicksand', sans-serif" font-size="12" text-anchor="middle">© Azeez A. Hamzat. The ecosystem of CI</text></svg>