<svg xmlns="http://www.w3.org/2000/svg" viewBox="0 0 800 520"><defs><filter id="a" width="140%" height="140%" x="-20%" y="-20%"><feGaussianBlur in="SourceAlpha" stdDeviation="2"/><feOffset dx="1" dy="2" result="offsetblur"/><feComponentTransfer><feFuncA slope=".3" type="linear"/></feComponentTransfer><feMerge><feMergeNode/><feMergeNode in="SourceGraphic"/></feMerge></filter><filter id="e" width="160%" height="160%" x="-30%" y="-30%"><feGaussianBlur in="SourceGraphic" result="blur" stdDeviation="5"/><feComposite in="SourceGraphic" in2="blur"/></filter><linearGradient id="b" x1="0%" x2="100%" y1="0%" y2="0%"><stop offset="0%" style="stop-color:silver;stop-opacity:.9"/><stop offset="40%" style="stop-color:#e0e0e0;stop-opacity:.7"/><stop offset="60%" style="stop-color:#e0e0e0;stop-opacity:.8"/><stop offset="100%" style="stop-color:silver;stop-opacity:.9"/></linearGradient><symbol id="c" viewBox="0 0 24 42"><circle cx="12" cy="8" r="7"/><path d="M6 15h12l2 25h-4l-2-10h-4L8 40H4Z"/></symbol></defs><path fill="#f8f9fa" d="M0 0h800v520H0z"/><text x="400" y="40" fill="#1a3c34" font-family="'Montserrat', sans-serif" font-size="24" font-weight="bold" text-anchor="middle">The Mirror Effect</text><text x="400" y="70" fill="#1a3c34" font-family="'Montserrat', sans-serif" font-size="18" text-anchor="middle">How Identity and Affinity Biases Shape Who Gets Heard</text><rect width="660" height="330" x="70" y="90" fill="#f0f0f0" stroke="#ddd" filter="url(#a)" rx="10"/><text x="400" y="110" fill="#1a3c34" font-family="'Montserrat', sans-serif" font-size="16" font-weight="bold" text-anchor="middle">Organizational Context</text><rect width="230" height="250" x="100" y="130" fill="#e6f2ff" stroke="#3273dc" stroke-width="2" filter="url(#a)" rx="10"/><text x="215" y="150" fill="#1a3c34" font-family="'Montserrat', sans-serif" font-size="14" font-weight="bold" text-anchor="middle">Actual Diverse Workforce</text><rect width="100" height="250" x="350" y="130" fill="url(#b)" stroke="#999" stroke-width="3" filter="url(#a)" rx="10"/><text x="400" y="150" fill="#1a3c34" font-family="'Montserrat', sans-serif" font-size="14" font-weight="bold" text-anchor="middle">Bias Filter</text><rect width="230" height="250" x="470" y="130" fill="#fffaeb" stroke="#ffdd57" stroke-width="2" filter="url(#a)" rx="10"/><text x="585" y="150" fill="#1a3c34" font-family="'Montserrat', sans-serif" font-size="14" font-weight="bold" text-anchor="middle">Who Gets Heard/Valued</text><use width="40" height="70" x="125" y="175" fill="#3273dc" href="#c"/><use width="40" height="70" x="175" y="195" fill="#f14668" href="#c"/><use width="40" height="70" x="125" y="275" fill="#48c774" href="#c"/><use width="40" height="70" x="225" y="175" fill="#96f" href="#c"/><use width="40" height="70" x="225" y="265" fill="#f93" href="#c"/><use width="40" height="70" x="175" y="315" fill="#17a2b8" href="#c"/><g fill="#fff" stroke="#333"><ellipse cx="155" cy="160" rx="12" ry="8"/><ellipse cx="205" cy="180" rx="12" ry="8"/><ellipse cx="155" cy="260" rx="12" ry="8"/><ellipse cx="255" cy="160" rx="12" ry="8"/><ellipse cx="255" cy="250" rx="12" ry="8"/><ellipse cx="205" cy="300" rx="12" ry="8"/></g><g fill="none" stroke="#666" stroke-width="2" marker-end="url(#d)"><path d="M280 160h60"/><path d="M280 200h60"/><path d="M280 240h60"/><path d="M280 280h60"/><path d="M280 320h60"/></g><defs><marker id="d" markerHeight="7" markerWidth="10" orient="auto" refX="9" refY="3.5"><path fill="#666" d="m0 0 10 3.5L0 7z"/></marker></defs><g fill="#ffdd57"><use width="40" height="70" x="495" y="175" href="#c"/><use width="40" height="70" x="545" y="195" href="#c"/><use width="40" height="70" x="495" y="275" href="#c"/><use width="40" height="70" x="595" y="175" href="#c"/><use width="40" height="70" x="595" y="265" href="#c"/><use width="40" height="70" x="545" y="315" href="#c"/></g><g fill="none" stroke="#666" stroke-width="2" marker-end="url(#d)"><path d="M460 160h20"/><path d="M460 200h20"/><path d="M460 240h20"/><path d="M460 280h20"/><path d="M460 320h20"/></g><g stroke="#ffdd57" stroke-dasharray="5,3" stroke-width="2"><path d="m515 195 30 20M545 215l-30 80M545 215l70-20M515 295l100-10M615 285l-50 50"/></g><g fill="#fff" stroke="#ffdd57" stroke-width="1.5"><ellipse cx="525" cy="160" rx="12" ry="8"/><ellipse cx="575" cy="180" rx="12" ry="8"/><ellipse cx="525" cy="260" rx="12" ry="8"/><ellipse cx="625" cy="160" rx="12" ry="8"/><ellipse cx="625" cy="250" rx="12" ry="8"/><ellipse cx="575" cy="300" rx="12" ry="8"/></g><g fill="none" stroke="#f93" stroke-dasharray="5,3" stroke-width="2"><circle cx="515" cy="195" r="25" filter="url(#e)"/><circle cx="545" cy="215" r="25" filter="url(#e)"/></g><ellipse cx="400" cy="200" fill="#f8f9fa" stroke="#666" rx="35" ry="25"/><path fill="none" stroke="#666" d="M380 190c5-5 15-5 20 0 5-5 15-5 20 0s5 15 0 20-15 5-20 0c-5 5-15 5-20 0s-5-15 0-20"/><text x="400" y="200" fill="#666" font-family="'Montserrat', sans-serif" font-size="8" text-anchor="middle">Cognitive</text><text x="400" y="210" fill="#666" font-family="'Montserrat', sans-serif" font-size="8" text-anchor="middle">Bias</text><path fill="#d1d1d1" fill-opacity=".3" stroke="#999" d="M380 250h40c10 10 10 40 0 50h-40c-10-10-10-40 0-50"/><text x="400" y="280" fill="#666" font-family="'Montserrat', sans-serif" font-size="8" text-anchor="middle">Similarity</text><text x="400" y="290" fill="#666" font-family="'Montserrat', sans-serif" font-size="8" text-anchor="middle">Filter</text><rect width="660" height="70" x="70" y="430" fill="#fff" stroke="#ddd" filter="url(#a)" rx="5"/><text x="80" y="455" fill="#1a3c34" font-family="'Montserrat', sans-serif" font-size="12" font-weight="bold">Affinity Bias:</text><text x="160" y="455" fill="#333" font-family="'Quicksand', sans-serif" font-size="12">We unconsciously prefer people who remind us of ourselves</text><text x="80" y="480" fill="#1a3c34" font-family="'Montserrat', sans-serif" font-size="12" font-weight="bold">Result:</text><text x="130" y="480" fill="#333" font-family="'Quicksand', sans-serif" font-size="12">Despite diversity, we value similar perspectives</text><text x="400" y="515" fill="#666" font-family="'Quicksand', sans-serif" font-size="12" text-anchor="middle">© Azeez A. Hamzat: Overcoming Biases for Inclusive Decision Making</text></svg>